<svg version="1.1" xmlns="http://www.w3.org/2000/svg" xmlns:xlink="http://www.w3.org/1999/xlink" width="275.06915" height="204.8047" viewBox="0,0,275.06915,204.8047"><g transform="translate(-102.14736,-77.59765)"><g data-paper-data="{&quot;isPaintingLayer&quot;:true}" fill-rule="nonzero" stroke-miterlimit="10" stroke-dasharray="" stroke-dashoffset="0" style="mix-blend-mode: normal"><g><g><path d="M135.68583,253.70748c0.9,0.4 2.7,0.9 1,4.8c-1.7,3.9 -8.5,5.9 -9.3,6c-3,0.6 -6.9,1.3 -11.3,0.6c-12.8,-1.9 -15.3,-15.2 -11.8,-18c3.5,-2.8 6.7,5.1 13,9.1c2.8,1.9 5.8,2.2 8.3,2.2c3.6,0.1 9.2,-4.9 10.1,-4.7z" fill="#9e9e9e" stroke="none" stroke-width="1" stroke-linecap="butt" stroke-linejoin="miter"/><path d="M109.68583,249.50748c2.1,2.2 6,5.9 6,5.9c0,0 -4.2,0.1 -6,2.3c-1.7,2.2 1.3,5.8 -0.5,5c-1.4,-1.2 -3.7,-3 -5.4,-6.3c-1.6,-3.3 -1.2,-8.4 0.6,-9.4c2,-0.8 3.5,0.5 5.3,2.5z" fill="#ffffff" stroke="none" stroke-width="1" stroke-linecap="butt" stroke-linejoin="miter"/><path d="M135.68583,253.70748c0.9,0.4 2.7,0.9 1,4.8c-1.7,3.9 -8.5,5.9 -9.3,6c-3,0.6 -6.9,1.3 -11.3,0.6c-12.8,-1.9 -15.3,-15.2 -11.8,-18c3.5,-2.8 6.7,5.1 13,9.1c2.8,1.9 5.8,2.2 8.3,2.2c3.6,0.1 9.2,-4.9 10.1,-4.7z" fill="none" stroke="#000000" stroke-width="1.4" stroke-linecap="round" stroke-linejoin="round"/></g><path d="M142.68583,247.80748l-5.2,13.6c0,0 1.6,-0.8 -3.2,2.3c-2.8,1.8 -16.6,-2.6 -18.5,-7.5c-1.2,-3.4 5.4,-18.2 5.4,-18.2z" fill="#9e9e9e" stroke="#000000" stroke-width="1.4" stroke-linecap="round" stroke-linejoin="round"/><path d="M127.58583,227.40748c1.4,0.4 2.4,1.6 2.9,3.1c0.5,1.5 0.6,3.5 0,5.4c-0.6,2 -1.7,3.6 -2.9,4.6c-1.3,1 -2.8,1.4 -4.1,1c-1.3,-0.4 -2.4,-1.6 -2.9,-3.1c-0.5,-1.5 -0.6,-3.5 0,-5.4c0.6,-2 1.7,-3.6 2.9,-4.6c1.2,-1 2.7,-1.4 4.1,-1z" fill="#9e9e9e" stroke="#000000" stroke-width="1.4" stroke-linecap="round" stroke-linejoin="round"/><path d="M126.68583,230.60748c0.7,0.2 1.3,0.9 1.6,1.7c0.3,0.9 0.3,1.9 0,3c-0.3,1.1 -0.9,2 -1.6,2.5c-0.7,0.6 -1.5,0.8 -2.2,0.6c-0.7,-0.2 -1.3,-0.9 -1.6,-1.7c-0.3,-0.9 -0.3,-1.9 0,-3c0.3,-1.1 0.9,-2 1.6,-2.5c0.6,-0.6 1.4,-0.9 2.2,-0.6z" fill="#9e9e9e" stroke="#000000" stroke-width="1.4" stroke-linecap="round" stroke-linejoin="round"/><path d="M118.48583,255.50748c-0.7,-1.1 1.6,-6.6 1.6,-6.6l5.9,3.1l-2.6,7.2c0,0 -4.2,-2.7 -4.9,-3.7z" fill="#9e9e9e" stroke="#000000" stroke-width="1.4" stroke-linecap="round" stroke-linejoin="round"/><g stroke="#000000" stroke-width="1.4" stroke-linecap="round" stroke-linejoin="round"><path d="M147.28582,256.40748c0,0 3.3,6.3 9.6,12.5c2.7,2.7 5.3,-5.2 9.7,0.8c1.2,1.7 -5.9,7.5 -8,8.3c-1.9,0.7 -2.7,0.5 -3.8,-1.2c-3.9,-6.3 -15.2,-12.3 -15.2,-12.3" fill="#9e9e9e"/><path d="M157.48583,270.80748c1,-1.2 2.1,-1.9 2.1,-1.9" fill="#faa51f"/></g><path d="M137.48583,256.40748" fill="#faa51f" stroke="#8e5322" stroke-width="1.4" stroke-linecap="round" stroke-linejoin="round"/><path d="M149.58583,250.70748c-1.9,6.4 -3,16.3 -14.4,13c-11.4,-3.4 -7.8,-11.7 -5.9,-18.1c1.9,-6.4 6.3,-7 12.8,-5.1c6.3,1.9 9.4,3.8 7.5,10.2z" fill="#9e9e9e" stroke="#000000" stroke-width="1.4" stroke-linecap="round" stroke-linejoin="round"/><path d="M146.28582,252.80748c-1.2,4 -2.1,10.3 -8.2,8.5c-6.1,-1.8 -4.1,-7.1 -2.9,-11.2c1.2,-4.1 3.6,-4.6 7.2,-3.5c3.5,1.1 5.1,2.2 3.9,6.2z" fill="#ffffff" stroke="none" stroke-width="1" stroke-linecap="butt" stroke-linejoin="miter"/><g stroke="#000000" stroke-width="1.4" stroke-linecap="round" stroke-linejoin="round"><path d="M137.98583,263.70748c-8.6,-0.2 -16.8,6.2 -18.8,5.1c-2.8,-2.7 -5.7,5.1 -9.9,-1.3c-1.4,-2.1 4.9,-6.4 6.9,-7.4c1.9,-0.9 3.2,-0.5 4.3,1.3c1.4,-0.5 8.4,-5.2 8.4,-5.2" fill="#9e9e9e"/><path d="M118.98583,268.70748c-1.1,-1 -1.7,-2.5 -1.7,-2.5" fill="#faa51f"/></g><g stroke-width="1.4" stroke-linecap="round" stroke-linejoin="round"><path d="M123.98583,253.90748c-3.3,-3.4 3.3,-12.6 11.3,-15.9l7.2,3.6" fill="#9e9e9e" stroke="#000000"/><path d="M131.68583,249.30748" fill="#faa51f" stroke="#8e5322"/><path d="M135.18583,248.50748" fill="none" stroke="#8e5322"/><path d="M135.38583,246.10748l-3.7,3.2" fill="#faa51f" stroke="#000000"/><path d="M130.58583,248.70748l1.1,0.6" fill="none" stroke="#8e5322"/></g><g stroke-width="1.4" stroke-linecap="round" stroke-linejoin="round"><path d="M147.98583,244.40748l4.2,0.5c4.4,4.2 7,14.1 0.9,16.4" fill="#9e9e9e" stroke="#000000"/><path d="M149.58583,254.60748" fill="#faa51f" stroke="#8e5322"/><path d="M147.58583,252.40748" fill="none" stroke="#8e5322"/><path d="M149.58583,250.70748v3.9" fill="#faa51f" stroke="#8e5322"/><path d="M149.58583,254.60748h1.1" fill="none" stroke="#8e5322"/></g><path d="M126.78583,256.10748c19,-9.2 6.2,-18.4 6.2,-18.4c16.3,10.1 -1.7,21 -6.3,21.4" fill="#9e9e9e" stroke="#000000" stroke-width="1.4" stroke-linecap="round" stroke-linejoin="round"/><path d="M147.28582,255.10748c6.5,-7.3 -2.6,-14 -2.6,-14c10.3,5.8 7.6,11.3 4.1,15.8" fill="#9e9e9e" stroke="#000000" stroke-width="1.4" stroke-linecap="round" stroke-linejoin="round"/><g><g><path d="M158.18583,196.20748l8,-6.1l1.4,11.5c0,0 5.6,5.3 7.1,8.7c2.4,5.6 2,9.9 2,9.9c0,0 6.6,2.9 7.1,8.5c0.6,5.6 -5,15.5 -23.5,16.8c-18.5,1.4 -32.3,-5.3 -37.9,-17.2c-5.4,-11.7 6.9,-23.5 6.2,-22.8l0.1,-18.4l11.5,9.7c0,0 4.5,-1.2 9.1,-0.8c1.7,0.1 4.7,0.7 6.2,1z" fill="#9e9e9e" stroke="none" stroke-width="1" stroke-linecap="butt" stroke-linejoin="miter"/><path d="M176.28583,220.60748c0,0 6.4,2.4 6.9,8c0.8,5.6 -5.3,15.3 -22.8,16.3c-4,0.2 -7.5,0.5 -13,-0.2c-8.4,-0.9 -17,-7.3 -15,-18.3c1.2,-6.3 9.2,-4.8 9.2,-4.8l7.3,-0.9c0,0 6.8,2.5 11.1,2.1c4.3,-0.4 4.7,-3.7 4.7,-3.7l9.1,-1.5l2.1,2.3z" fill="#ffffff" stroke="none" stroke-width="1" stroke-linecap="butt" stroke-linejoin="miter"/><path d="M191.58583,223.30748c0,0 -2,1.3 -4.7,1.9c-2.2,0.5 -6.7,0.7 -6.7,0.7" fill="none" stroke="#000000" stroke-width="1.4" stroke-linecap="round" stroke-linejoin="round"/><path d="M189.68583,234.30748c0,0 -1.9,0 -4.5,-0.6c-2.8,-0.6 -5.2,-2 -5.2,-2" fill="none" stroke="#000000" stroke-width="1.4" stroke-linecap="round" stroke-linejoin="round"/><path d="M138.18583,195.00748l4.7,4.2" fill="none" stroke="#000000" stroke-width="1.4" stroke-linecap="round" stroke-linejoin="round"/><path d="M158.18583,196.20748l8,-6.1l1.4,11.5c0,0 5.6,5.3 7.1,8.7c2.4,5.6 2,9.9 2,9.9c0,0 6.6,2.9 7.1,8.5c0.6,5.6 -5,15.5 -23.5,16.8c-18.5,1.4 -32.3,-5.3 -37.9,-17.2c-5.4,-11.7 6.9,-23.5 6.2,-22.8l0.1,-18.4l11.5,9.7c0,0 4.5,-1.2 9.1,-0.8c1.7,0.1 4.7,0.7 6.2,1z" fill="none" stroke="#000000" stroke-width="1.4" stroke-linecap="round" stroke-linejoin="round"/><path d="M122.38583,223.90748c0,0 -3.5,0 -5.3,-0.1c-1.8,-0.1 -5.7,-1 -5.7,-1" fill="none" stroke="#000000" stroke-width="1.4" stroke-linecap="round" stroke-linejoin="round"/><path d="M111.68583,213.20748c0,0 2.2,0.6 5.9,2.9c3.4,2 5.5,4 5.5,4" fill="none" stroke="#000000" stroke-width="1.4" stroke-linecap="round" stroke-linejoin="round"/></g><g><path d="M172.58583,210.00748c2.3,4.6 1.7,9.6 -1.1,10.9c-2.9,1.5 -7.1,-1.2 -9.4,-5.9c-2.3,-4.6 -1.7,-9.6 1.1,-10.9c2.9,-1.3 7.1,1.3 9.4,5.9z" fill="#ffffff" stroke="#000000" stroke-width="1.4" stroke-linecap="round" stroke-linejoin="round"/><path d="M171.98583,213.60748c0.2,1 -0.4,2 -1.5,2.1c-0.9,0.2 -1.8,-0.5 -2,-1.7c-0.2,-1 0.4,-2 1.5,-2.1c1,0 1.9,0.7 2,1.7" fill="#000000" stroke="none" stroke-width="1" stroke-linecap="butt" stroke-linejoin="miter"/></g><g><path d="M149.18583,210.30748c2.3,4.6 1.3,9.7 -2.1,11.4c-3.4,1.7 -8.1,-0.7 -10.3,-5.4c-2.3,-4.6 -1.3,-9.7 2.1,-11.4c3.4,-1.6 8,0.8 10.3,5.4z" fill="#ffffff" stroke="#000000" stroke-width="1.4" stroke-linecap="round" stroke-linejoin="round"/><path d="M148.38583,214.10748c-0.1,1 -1,1.8 -1.9,1.7c-1,-0.1 -1.6,-1 -1.5,-2.1c0.1,-1 1,-1.8 1.9,-1.7c0.9,0.1 1.6,1 1.5,2.1" fill="#000000" stroke="none" stroke-width="1" stroke-linecap="butt" stroke-linejoin="miter"/></g><path d="M158.88583,221.50748c1.7,0 4.2,-1 4.2,0.9c-0.1,0.8 -2.1,3.9 -3.9,3.8c-2,-0.1 -5.2,-3.1 -4.9,-4.5c0.3,-1.4 3.1,-0.2 4.6,-0.2z" fill="#9e9e9e" stroke="#000000" stroke-width="1.4" stroke-linecap="round" stroke-linejoin="round"/><path d="M155.68583,237.80748c-5.5,0.4 -7.7,-2.2 -7.7,-2.2" fill="#ffffff" stroke="#000000" stroke-width="1.4" stroke-linecap="round" stroke-linejoin="round"/></g><path d="M130.58583,248.70748c5.9,-0.2 7.9,3.7 7.3,5.3c-1.3,3.8 -6.2,4.2 -13.9,0" fill="#9e9e9e" stroke="#000000" stroke-width="1.4" stroke-linecap="round" stroke-linejoin="round"/><path d="M153.08583,261.30748c-6.2,2.7 -8.9,-1.9 -6.8,-4.5c1.4,-1.9 3.5,-3.6 6.2,-1.4" fill="#9e9e9e" stroke="#000000" stroke-width="1.4" stroke-linecap="round" stroke-linejoin="round"/><path d="M227.03609,155.26444h80.2009v127.13792h-80.2009z" fill="#666666" stroke="none" stroke-width="1.19436" stroke-linecap="butt" stroke-linejoin="miter"/><path d="M232.28586,281.97272v-122.02172h69.87872v122.02172z" fill="#a0a0a0" stroke="none" stroke-width="0" stroke-linecap="butt" stroke-linejoin="miter"/><path d="M232.32133,160.20412h33.34315v122.02173h-33.34315z" fill="#cccccc" stroke="none" stroke-width="1.09866" stroke-linecap="butt" stroke-linejoin="miter"/><path d="M236.68535,243.41946h10.10291v36.97358h-10.10291z" fill="#b2b2b2" stroke="none" stroke-width="1.1741" stroke-linecap="butt" stroke-linejoin="miter"/><path d="M248.62488,243.17116h10.10291v36.97358h-10.10291z" fill="#b2b2b2" stroke="none" stroke-width="1.1741" stroke-linecap="butt" stroke-linejoin="miter"/><g fill="#7f7f7f" stroke="none" stroke-width="0.84029" stroke-linecap="butt" stroke-linejoin="miter"><path d="M238.83315,246.76428h6.55931v30.93364h-6.55931z"/><path d="M250.45273,247.04805h6.55931v30.93365h-6.55931z"/></g><path d="M260.42725,226.88559c0.97571,0 1.85981,0.835 2.50006,2.18292c0.63992,1.34862 1.03634,3.21087 1.03634,5.26609c0,2.05522 -0.39641,3.91746 -1.03634,5.26609c-0.64025,1.34792 -1.52435,2.18292 -2.50006,2.18292c-0.97571,0 -1.85982,-0.835 -2.50007,-2.18292c-0.63992,-1.34862 -1.03633,-3.21087 -1.03633,-5.26609c0,-2.05522 0.39641,-3.91746 1.03633,-5.26609c0.64025,-1.34792 1.52436,-2.18292 2.50007,-2.18292z" fill="#666666" stroke="none" stroke-width="1" stroke-linecap="butt" stroke-linejoin="miter"/><path d="M237.02773,166.22142h10.10442v56.20548h-10.10442z" fill="#b2b2b2" stroke="none" stroke-width="1.40262" stroke-linecap="butt" stroke-linejoin="miter"/><path d="M248.79888,166.15048h10.10442v56.20548h-10.10442z" fill="#b2b2b2" stroke="none" stroke-width="1.40262" stroke-linecap="butt" stroke-linejoin="miter"/><g fill="#7f7f7f" stroke="none" stroke-width="1.0718" stroke-linecap="butt" stroke-linejoin="miter"><path d="M238.51154,170.76879h6.68079v47.54151h-6.68079z"/><path d="M250.35004,171.19445h6.68079v47.54151h-6.68079z"/></g><g fill="#000000" stroke="none" stroke-width="0.5" stroke-linecap="butt" stroke-linejoin="miter"><path d="M169.27143,122.47898c1.76777,1.76777 0,3.53553 0,3.53553l-1.82809,1.32426c-4.05761,1.0009 -10.88608,4.91462 -14.93429,2.44283c-1.39666,-0.85278 -0.79957,-3.20401 -0.81998,-4.84031c-0.03231,-2.59026 1.52138,-6.00465 2.51674,-8.34601c0,0 0.9848,-2.29786 3.28266,-1.31306c2.29786,0.9848 1.31306,3.28266 1.31306,3.28266c-0.6447,1.49023 -1.14198,3.04717 -1.53917,4.62154c-0.19923,0.78971 -0.24625,1.63746 -0.61075,2.36579c-0.11246,0.2247 -0.74427,0.46469 -0.85949,0.50651c0.00928,-0.00322 0.02232,-0.00769 0.03951,-0.01349c3.49539,-1.18003 6.81102,-2.64983 10.39904,-3.55717l-0.49476,-0.00908c0,0 1.76777,-1.76777 3.53553,0z"/><path d="M185.65103,125.93666c0.31009,2.48069 -2.17061,2.79078 -2.17061,2.79078l-2.82141,0.34781c-1.37878,-0.12285 -2.96657,0.37156 -4.13634,-0.36854c-1.21462,-0.76848 -1.56263,-2.41574 -2.25507,-3.67526c-0.48732,-0.88642 -0.84372,-1.92245 -1.0599,-3.02532c-0.72642,-0.15237 -1.6058,-0.62976 -1.83668,-2.01505c-0.32556,-1.95334 1.15404,-2.61729 1.78328,-2.80893c0.70281,-4.02022 3.35631,-7.4085 8.38251,-6.4084c4.72446,0.94006 5.86595,3.58807 3.22467,8.06874c-0.90138,1.5291 -4.14408,2.26942 -6.90475,2.70031c0.37108,1.6624 1.26774,2.91892 2.49161,2.54211l2.51192,-0.31886c0,0 2.48069,-0.31009 2.79078,2.17061zM178.99491,116.03668c0.23706,-0.05227 0.47394,-0.10531 0.71063,-0.15911c0.20771,-0.04721 0.56069,-0.17573 0.88799,-0.29827c-0.43134,0.03516 -0.8925,-0.00303 -1.25456,0.21082c-0.12185,0.07197 -0.23648,0.15452 -0.34407,0.24656z"/><path d="M205.50367,135.74675c-2.5,0 -2.5,-2.5 -2.5,-2.5v-0.95452c-0.06862,0.06435 -0.13837,0.1272 -0.20926,0.18848c-4.28066,3.70071 -13.82377,3.84803 -15.41675,-2.78491c-0.91871,-3.82537 2.46669,-8.73634 4.41126,-11.54938c0,0 1.27157,-1.81652 3.13039,-0.83053l0.64468,-0.16117c3.00602,-0.64894 4.50025,-1.59388 7.34201,0.67655c0.28216,-0.67562 0.90212,-1.41786 2.26433,-1.41786c2.5,0 2.5,2.5 2.5,2.5c-0.00476,3.8957 0.33333,7.75957 0.33333,11.66667v2.66667c0,0 0,2.5 -2.5,2.5zM194.82873,122.40594c-0.39903,0.52205 -0.78276,1.05358 -1.0919,1.6313c-0.09275,0.17334 -1.42789,4.37837 -1.44049,4.76046c-0.07555,2.29073 6.2373,0.69748 7.24992,-0.11824c1.56841,-1.26344 1.91483,-5.4486 0.37479,-6.83076c-1.02801,-0.92262 -2.08925,-0.17114 -3.14438,0.15674l-1.33333,0.33333c0,0 -0.25235,0.06309 -0.6146,0.06716z"/><path d="M222.00367,121.24675c2,1.5 0.5,3.5 0.5,3.5l-0.76393,0.95137c-0.81425,1.60794 -2.25808,5.12924 -4.17568,5.81261c-6.21764,2.21576 -7.46773,-3.10676 -7.56039,-7.59731c0,0 0,-2.5 2.5,-2.5c2.5,0 2.5,2.5 2.5,2.5c-0.15294,4.78493 0.69936,2.72681 2.26393,-0.45137l1.23607,-1.7153c0,0 1.5,-2 3.5,-0.5z"/><path d="M225.67033,119.24675c0,-1.38071 1.11929,-2.5 2.5,-2.5c1.38071,0 2.5,1.11929 2.5,2.5c0,1.38071 -1.11929,2.5 -2.5,2.5c-1.38071,0 -2.5,-1.11929 -2.5,-2.5z"/><path d="M228.50367,136.41342c-2.5,0 -2.5,-2.5 -2.5,-2.5v-0.66667c0.00219,-2.03101 -0.11689,-4.06384 -0.32093,-6.08457c0,0 -0.24876,-2.48759 2.23883,-2.73635c2.48759,-0.24876 2.73635,2.23883 2.73635,2.23883c0.21666,2.18635 0.34356,4.38504 0.34574,6.58209v0.66667c0,0 0,2.5 -2.5,2.5z"/><path d="M245.837,134.08008c-2.5,0 -2.5,-2.5 -2.5,-2.5v-1c0,-0.88889 -0.00246,-1.77778 0,-2.66667c0.00252,-0.90908 0.08262,-1.82065 0.01493,-2.72721c-0.27969,-3.7458 -0.39639,-2.70377 -1.61219,-0.15476c-1.51032,3.1665 -2.35697,6.38062 -3.54838,9.72281c0,0 -0.84084,2.35435 -3.1952,1.51351c-2.35435,-0.84084 -1.51351,-3.1952 -1.51351,-3.1952c1.25231,-3.4996 2.08299,-6.98325 3.78495,-10.27719c0.56729,-1.09791 0.81615,-2.46104 1.75327,-3.26667c3.63532,-3.12528 5.65443,-2.83433 8.34098,1.18168c1.692,2.5293 0.97515,6.99938 0.97515,9.86969v1c0,0 0,2.5 -2.5,2.5z"/><path d="M263.09021,145.30017c-1.38675,-2.08013 0.69338,-3.46688 0.69338,-3.46688l1.20136,-0.46731c2.1577,-3.72722 1.49616,-7.35276 0.31499,-11.02677c-0.98174,0.38355 -2.23806,0.26736 -3.30759,0.40271c-4.02947,0.50992 -7.85538,-0.23908 -10.30561,-3.88655c-0.7163,-1.0663 -0.63791,-2.48864 -0.95687,-3.73296c0,0 -0.07775,-0.34988 -0.0419,-0.81413c-1.55397,-1.51806 -0.13647,-3.28993 -0.13647,-3.28993l2.04516,-2.27554c3.46503,-1.86602 7.22742,-2.70831 10.92636,-0.26517c1.50755,0.99573 2.8323,2.65588 3.65599,4.5383c0.56703,0.55918 0.75002,1.29113 0.75002,1.29113c1.41677,5.7435 5.12136,11.89988 3.2938,18.01988c-0.3756,1.25778 -1.24473,2.31149 -1.8671,3.46723l-2.79864,2.19935c0,0 -2.08013,1.38675 -3.46688,-0.69338zM255.15028,121.03861c0.3491,0.49775 0.46052,0.99915 0.46052,0.99915c0.69301,4.17323 2.48385,3.48573 6.07086,3.71382c0.41848,0.02661 0.89125,0.46568 1.23704,0.22848c1.31305,-0.90073 -1.31015,-4.80663 -2.10104,-5.29754c-2.0685,-1.28391 -3.88113,-0.74828 -5.66737,0.35609z"/></g><g fill="#000000" stroke="none" stroke-width="0.5" stroke-linecap="butt" stroke-linejoin="miter"><path d="M179.16062,105.26487c-2.45145,0.49029 -2.94174,-1.96116 -2.94174,-1.96116l-0.38188,-2.15696c0,-2.92065 -0.20492,-5.79703 -0.29345,-8.69459c-0.516,-0.32685 -1.00877,-0.70493 -1.47917,-1.05611c-0.93774,-0.70008 -1.67466,-1.67734 -2.24471,-2.69935c-0.67483,-1.20987 -1.8853,-5.97049 -2.22791,-7.22548c0,0 -0.65779,-2.41191 1.75412,-3.0697c2.41191,-0.65779 3.0697,1.75412 3.0697,1.75412c0.21029,0.77187 1.06796,5.98416 2.60861,7.64828c0.27411,-0.09883 0.59763,-0.15715 0.97948,-0.15715c0.22977,0 0.43842,0.02112 0.6279,0.05947c0.03918,-0.05848 0.0795,-0.11365 0.12267,-0.16131c2.03051,-2.24147 2.43746,-3.77229 3.1574,-6.67117l0.85595,-1.84503c0,0 1.11803,-2.23607 3.3541,-1.11803c2.23607,1.11803 1.11803,3.3541 1.11803,3.3541l-0.47738,0.82164c-0.84996,3.37972 -2.51169,8.89152 -6.21424,10.6611c0.09081,2.79665 0.28889,5.58014 0.28889,8.39922l0.28479,1.17638c0,0 0.49029,2.45145 -1.96116,2.94174z"/><path d="M189.12363,97.84411c-0.01275,0.95233 -0.01731,1.90457 0.00659,2.85657c0.01019,0.40612 -0.15746,0.95431 0.15965,1.20823c1.84204,1.475 4.65295,-2.01751 4.94901,-3.34358c0.20096,-0.90009 1.08127,-2.33178 0.26153,-2.75437c-0.88031,-0.45382 -1.93956,0.40593 -2.89799,0.65552l-2.02507,1.1842c0,0 -0.17488,0.09993 -0.45372,0.19342zM188.58824,92.47239l1.15,-0.64539c1.14936,-0.28079 2.26491,-0.84068 3.44807,-0.84238c1.46661,-0.0021 3.15429,-0.05795 4.32061,0.83123c2.46228,1.8772 2.19491,5.42571 1.59486,7.9123c-1.21776,5.04643 -7.93601,9.88745 -13.05099,5.98975c-1.19759,-0.91258 -1.51769,-2.65441 -1.84035,-4.1251c-0.04914,-0.22397 -0.04012,-6.48744 -0.04012,-7.44606c0,0 0,-2.5 2.5,-2.5c0.962,0 1.55382,0.37018 1.91791,0.82564z"/><path d="M210.67033,95.31342c2.5,0 2.5,2.5 2.5,2.5l-0.20214,2.65146c-1.69933,3.86817 -3.02706,6.32746 -7.78654,5.8437c-1.462,-0.1486 -3.23997,-0.02162 -4.27909,-1.06074c-1.80798,-1.80798 -1.06557,-7.38297 -1.06557,-9.76777c0,0 0,-2.5 2.5,-2.5c2.5,0 2.5,2.5 2.5,2.5c0,1.726 0.18707,3.46269 -0.00483,5.17799c-0.04171,0.37284 -0.65935,0.78896 -0.39407,1.05424c0.26528,0.26528 0.67987,-0.36973 1.05424,-0.39407c0.48871,-0.03177 0.99565,0.41166 1.45093,0.2312c1.04491,-0.41418 0.99889,-2.01578 1.42919,-3.05416l-0.20214,-0.68187c0,0 0,-2.5 2.5,-2.5z"/><path d="M235.337,108.98008c-2.5,0 -2.5,-2.5 -2.5,-2.5l0.01487,-0.7526c-3.11318,1.31806 -7.51872,1.08651 -9.68251,-1.21544c-2.32881,-2.47751 -1.17586,-5.05625 -0.59105,-7.6383c0,0 0.60634,-2.42536 3.0317,-1.81902c0.08857,0.02214 0.1731,0.04671 0.25377,0.0735c0.90101,-0.71737 1.63864,-1.79039 2.75346,-2.04229c2.98914,-0.67541 5.56495,0.47162 7.06981,2.39859c0.25353,-0.53573 0.5242,-1.06232 0.81269,-1.57813c0,0 1.24035,-2.17061 3.41096,-0.93026c2.17061,1.24035 0.93026,3.41096 0.93026,3.41096c-1.68237,2.86268 -2.6346,6.43536 -3.02325,9.73641l0.01931,0.35658c0,0 0,2.5 -2.5,2.5zM226.71894,101.00308c0.03396,0.03955 0.07348,0.07686 0.11904,0.11171c0.86502,0.6618 3.86745,0.58102 4.63321,-0.29866c0.92958,-1.06787 0.68668,-3.77015 -1.41442,-2.9419c-0.50732,0.19998 -0.7462,0.79538 -1.11931,1.19307l-0.60046,0.91278c0,0 -0.63011,0.84014 -1.61806,1.023z"/><path d="M255.15103,96.50333c0.31009,2.48069 -2.17061,2.79078 -2.17061,2.79078l-2.10501,0.19573c-3.28561,2.26396 -3.91805,4.02603 -5.1667,7.78081c0,0 -0.79057,2.37171 -3.16228,1.58114c-2.37171,-0.79057 -1.58114,-3.16228 -1.58114,-3.16228c1.79736,-5.38023 3.32132,-7.71848 8.16664,-10.88585l3.22832,-0.47094c0,0 2.48069,-0.31009 2.79078,2.17061z"/><path d="M272.23973,107.02872c1.11803,2.23607 -1.11803,3.3541 -1.11803,3.3541l-1.47461,0.57796c-5.33418,0.60305 -11.14342,-0.5579 -11.14342,-7.14736c0,-1.33523 -0.02349,-2.81528 0.68579,-3.94654c2.33322,-3.72134 12.61162,-6.35331 10.80207,2.20835c-0.38185,1.80667 -4.78047,2.6962 -6.51335,3.11394c0.00211,0.00368 0.00423,0.00736 0.00636,0.01105c0.9219,1.59512 4.25156,0.98184 5.54237,0.79918l-0.14128,-0.08871c0,0 2.23607,-1.11803 3.3541,1.11803z"/><path d="M308.67033,108.98008c-2.5,0 -2.5,-2.5 -2.5,-2.5l0.12829,-0.54276c-0.49954,-1.50216 -0.47294,-3.3156 -1.52657,-4.49708c-3.11497,-3.49298 -12.26467,-0.96636 -14.80279,1.91798c-0.72114,0.81951 -0.74768,3.4045 -0.81423,4.06461c0,0 -0.27608,2.48471 -2.76079,2.20863c-2.48471,-0.27608 -2.20863,-2.76079 -2.20863,-2.76079c0.27988,-2.34809 0.21301,-4.62744 1.85244,-6.60205c4.60892,-5.55123 17.19727,-7.8256 22.53055,-2.08202c0.85084,0.9163 2.09083,5.0243 2.47343,6.16959l0.12829,2.1239c0,0 0,2.5 -2.5,2.5z"/><path d="M319.07566,100.71437c0.1842,0.71538 0.02003,1.37206 0.02003,1.37206c-0.19734,0.68678 -0.34528,1.38971 -0.59202,2.06033c-0.0848,0.23047 -0.64044,0.62032 -0.39487,0.62196c1.29313,0.00863 4.55333,-3.41528 5.09382,-4.55484c0.32298,-0.68098 -1.51736,-0.04687 -2.25949,0.08462c-0.62803,0.11127 -1.24764,0.26409 -1.86747,0.41588zM314.23406,100.9209c-0.31382,-1.04978 0.29254,-2.06038 0.29254,-2.06038l2.60141,-2.82089c1.08984,-0.23709 2.15704,-0.63177 3.26953,-0.71127c1.40746,-0.10058 2.98155,-0.48316 4.2295,0.17537c6.51556,3.43822 1.55434,11.82977 -3.71564,13.30575c-1.82309,0.5106 -4.07726,1.05719 -5.67953,0.04866c-1.41568,-0.89109 -1.52301,-3.05123 -1.7282,-4.71137c-0.13525,-1.09419 0.47617,-2.15111 0.73039,-3.22585z"/><path d="M342.37757,96.44171c2.37171,0.79057 1.58114,3.16228 1.58114,3.16228l-0.78449,1.80989c-1.13708,1.36449 -3.67394,4.67309 -5.25389,4.89954c-1.00385,0.14388 -1.22964,-1.92478 -2.23397,-2.06522c-1.08377,-0.15155 -1.96063,1.67574 -3,1.33333c-3.71757,-1.22471 -3.47481,-3.96838 -3.91339,-6.79136c0,0 -0.31009,-2.48069 2.17061,-2.79078c2.48069,-0.31009 2.79078,2.17061 2.79078,2.17061c0.04863,0.66042 0.12334,1.31944 0.14589,1.98127c0.0064,0.18783 -0.24105,0.60846 -0.05928,0.5607c1.0584,-0.27808 1.91727,-1.49219 3,-1.33333c0.73391,0.10768 0.57138,1.41377 1.09936,1.93478c0.26796,0.26442 -0.40998,-0.75789 -0.25389,-1.10046c0.35983,-0.78969 1.11111,-1.33333 1.66667,-2l-0.11782,-0.19011c0,0 0.79057,-2.37171 3.16228,-1.58114z"/></g><g stroke="none" stroke-linecap="butt" stroke-linejoin="miter"><path d="M369.15198,143.17813c-1.0915,0.13644 -1.77368,0.13644 -2.04656,0.27287c-0.54575,0.27287 -1.77369,0.54575 -3.2745,0.54575c-1.91012,0 -3.6838,-0.68219 -5.18461,-1.77369h-1.0915c-0.40931,0 -0.68218,0 -1.09149,-0.13644c-1.50081,0.54575 -2.86519,0.54575 -3.68381,0.54575h-0.27287c-1.91012,0.13644 -3.82024,-0.27287 -5.45749,-1.0915c-0.81862,0.27287 -1.50081,0.40931 -2.31943,0.40931l-5.04818,0.13644c-2.31943,0 -4.36599,-0.81862 -6.00324,-2.31943c-0.68219,0 -1.36437,-0.13644 -1.91012,-0.27287c-0.81862,0.95506 -1.91012,1.77369 -3.27449,2.45587c-2.59231,1.22794 -5.45749,1.36437 -8.18624,0.27287c-0.27287,-0.13644 -0.68219,-0.27287 -0.95506,-0.40931l-3.13806,0.40931h-0.95506c-0.40931,0.13644 -0.68219,0.40931 -0.95506,0.54575c-2.04656,0.95506 -3.95668,0.95506 -4.77531,0.95506h-0.68219c-2.31943,0 -4.63887,-0.68219 -6.41255,-1.91012c-0.54575,0.13644 -1.22794,0.27287 -1.77369,0.27287c-1.22794,0.81862 -2.72875,1.36437 -4.36599,1.50081h-0.54575c-4.50243,0 -8.18624,-3.41093 -8.59555,-7.91336v-0.13643c0,-0.68219 -0.13644,-2.183 0,-3.82024c0,-0.81862 0.13644,-2.04656 0.13644,-2.31943c0,-1.0915 0.27287,-2.183 0.68219,-3.2745c-0.27287,-1.0915 -0.13644,-2.183 0,-3.2745v-0.40931c0.13644,-0.95506 0.40931,-2.86518 1.36437,-4.77531c1.77369,-3.2745 5.04818,-5.32106 8.73198,-5.32106c1.22794,-0.68219 2.45587,-0.95506 3.82025,-0.95506h0.40931c2.72875,0.13644 5.18462,1.50081 6.68543,3.68381c1.22794,-1.0915 2.72875,-1.77368 4.36599,-2.04655c3.2745,-0.40931 6.00323,-0.54575 8.32267,-0.13644c1.22794,-1.0915 2.86518,-1.91012 4.50243,-2.04655l3.54737,-0.54575h1.0915c2.04656,0 4.09312,0.81862 5.73037,2.18299h0.27287l5.18462,-0.13644c2.183,0 4.09312,-0.13644 4.50243,-0.13644h0.68219c1.91012,0 3.95668,0.68219 5.45749,1.91012c1.50081,-1.0915 3.27449,-1.63725 5.18461,-1.63725h1.77369c1.36437,-0.81862 2.86518,-1.36437 4.50243,-1.36437l4.36599,-0.13643h0.13644c4.63887,0 8.45911,3.82025 8.59555,8.45911c0,2.183 -0.68219,4.09312 -2.04656,5.73036v3.95668c1.22794,1.36437 1.91012,3.13805 2.04656,5.04817c0.27287,4.63887 -3.2745,8.59555 -8.0498,9.00486z" fill="#ffffff" stroke-width="1"/><path d="M368.87911,138.26639c-1.77369,0.13644 -2.86518,0.27287 -3.13806,0.40931l-0.13644,0.13644c-0.40931,0.13644 -0.95506,0.40931 -1.63725,0.40931c-0.81862,0 -1.77369,-0.27287 -2.45587,-0.95506c-0.27287,-0.27287 -0.54575,-0.54575 -0.68219,-0.81863h-3.13805c-0.54575,0 -1.0915,-0.13643 -1.50081,-0.40931c-0.13644,0.13644 -0.40931,0.13644 -0.54575,0.27287c-1.0915,0.54575 -2.04656,0.54575 -2.72875,0.54575h-0.68219c-2.04656,0 -3.68381,-0.68219 -4.77531,-1.91013c-0.68219,0.68219 -1.63725,1.0915 -2.59231,1.0915l-5.04818,0.13643c-1.77369,0 -3.41093,-1.36437 -3.68381,-3.00162c-0.68219,0.40931 -1.36437,0.68219 -2.183,0.68219c-0.81862,0 -1.63725,-0.27288 -2.31943,-0.68219c-0.13644,-0.13644 -0.27288,-0.27287 -0.40931,-0.27287c-0.40931,0.27287 -0.95506,0.27287 -1.50081,0.27287h-0.40931c-0.54575,1.63725 -1.50081,2.72875 -3.00162,3.41094c-0.68219,0.27287 -1.50081,0.54574 -2.183,0.54574c-0.68219,0 -1.50081,-0.13644 -2.183,-0.40931c-0.68219,-0.27287 -1.22794,-0.68219 -1.63725,-1.0915c-0.27287,0.13644 -0.54575,0.13644 -0.81862,0.27287l-3.95668,0.54575h-0.54575c-0.40931,0 -0.68219,0 -1.0915,-0.13643c-0.54575,0.54575 -1.22793,0.81862 -1.77368,1.09149c-1.0915,0.54575 -2.04656,0.54575 -2.72875,0.54575h-0.68219c-2.45587,0 -4.36599,-1.09149 -5.45749,-2.5923c-1.0915,0.68219 -2.45587,1.09149 -3.68381,1.09149h-0.81862c0,0.13644 -0.13644,0.13644 -0.13644,0.27287c-0.68219,0.68219 -1.63725,1.22794 -2.59231,1.22794h-0.27287c-1.91012,0 -3.54737,-1.50081 -3.68381,-3.54737v-0.13643c0,-0.68219 -0.13644,-1.91012 0,-3.2745c0,-0.95506 0.13644,-2.45587 0.13644,-2.45587c0,-0.95506 0.40931,-1.77369 0.95506,-2.45587c-0.54575,-1.0915 -0.68219,-2.31944 -0.40931,-3.68381v-0.27287c0.13644,-0.81862 0.27287,-2.04656 0.81862,-3.2745c0.95506,-1.77369 2.72875,-2.72874 4.77531,-2.72874h0.95506c0.68219,-0.54575 1.50081,-0.95506 2.45587,-0.95506c2.04656,0 3.68381,1.77369 3.68381,3.82025v1.50081c0.68219,-0.27287 1.50081,-0.40932 2.31943,-0.40932c0.40931,0 0.68219,0.00001 1.0915,0.13644c0.54575,-0.68219 1.36437,-1.0915 2.183,-1.22794c0.13644,-0.27287 0.27287,-0.40932 0.40931,-0.68219c0.54575,-0.81862 1.50081,-1.36437 2.45587,-1.50081c0.81862,-0.13644 2.45587,-0.27287 4.36599,-0.27287c2.183,0 3.95668,0.27287 5.32105,0.95506c0.40931,-1.50081 1.50081,-2.59231 3.13806,-2.86518l3.54737,-0.54575h0.54575c1.0915,0 2.04656,0.40931 2.72875,1.22794c0.27287,0.27287 0.68219,0.81863 0.81862,1.22794l0.13644,0.40931c0.68219,-0.40931 1.36437,-0.68219 2.183,-0.68219l5.32106,-0.13644c2.59231,0 4.91174,-0.13644 4.91174,-0.27287h0.27287c0.95506,0 2.04656,0.40931 2.72875,1.0915c0.54575,0.54575 0.95506,1.22794 1.0915,2.04656h0.27287c0.40931,0 0.68219,0 1.0915,0.13644c0.54575,-0.68219 1.36437,-1.0915 2.18299,-1.22794c0.68219,-0.95506 1.91012,-1.77369 3.2745,-1.77369h3.54737c0.68219,-0.81862 1.63725,-1.36437 2.86518,-1.36437h4.36599c2.04656,0 3.68381,1.63725 3.82024,3.68381c0,1.50081 -0.81862,2.86518 -2.04656,3.41093v8.32267c1.0915,0.54575 1.91012,1.77369 2.04656,3.13806c0.13644,2.04656 -1.50081,3.82025 -3.54737,3.95668z" fill="#606060" stroke-width="1"/><path d="M332.85967,126.39635l-2.72875,0.40931l0.95506,-4.91174z" fill="#f9a83a" stroke-width="1"/><path d="M298.47749,126.66922c1.63725,0.27287 5.04818,0.81863 5.04818,4.22956c0,0.95506 -0.54575,2.04656 -1.36437,2.72875c-0.95506,0.81862 -2.183,1.22794 -3.41093,0.95506c-0.95506,-0.13644 -1.77369,-0.54575 -2.31943,-0.95506v1.50081c0,0.40931 -0.40931,0.81862 -0.81862,0.81862c-0.40931,0 -0.81862,-0.40931 -0.81862,-0.81862c0,-0.13644 -0.13644,-1.36437 0,-3.00162c0.13644,-0.95506 0.13644,-2.59231 0.13644,-2.59231c0,-0.40931 0.40931,-0.81862 0.81862,-0.81862c0.40931,0 0.81862,0.40931 0.81862,0.81862v0.27287c0,0.40931 0.13644,1.0915 0.27287,1.63725c0.27287,0.54575 1.0915,0.95506 1.36437,1.0915c0.27287,0 0.40931,0.13644 0.68219,0.13644c0.81862,0.13644 1.63725,0 2.183,-0.54575c0.54575,-0.40931 0.81862,-0.95506 0.81862,-1.50081c0,-1.36437 -1.50081,-1.77369 -3.68381,-2.183c-2.04656,-0.40931 -2.86518,-2.04656 -2.59231,-4.63887v-0.27287c0.13644,-1.36437 0.40931,-3.6838 3.00162,-3.27449c0.95506,0 1.77369,0.68218 2.45587,1.36437v-1.50081c0,-0.40931 0.40931,-0.81863 0.81862,-0.81863c0.40931,0 0.81862,0.40932 0.81862,0.81863c0,0.13644 -0.27287,5.32105 -0.27287,5.32105c-0.13644,0.40931 -0.54575,0.81862 -0.95506,0.68219c-0.40931,-0.13644 -0.68219,-0.40931 -0.68219,-0.68219v-0.54575c-0.13644,-0.40931 -0.13644,-0.81862 -0.40931,-1.36437c-0.27287,-0.81862 -0.81862,-1.22794 -1.0915,-1.50081c-0.27287,-0.27287 -0.54575,-0.40931 -0.81862,-0.40931c-0.81862,0 -0.95506,0.40931 -1.22794,2.04656v0.27288c-0.27287,1.91012 0.27287,2.59231 1.22794,2.72874M321.39894,124.34979c0.40931,-0.54575 0.68219,-1.09149 0.68219,-1.36437v-0.27287c-0.40931,-0.68219 -2.31943,-0.81862 -4.50242,-0.81862v3.82025c0.81862,-0.13644 1.63724,-0.27288 2.18299,-0.54575l0.40931,-0.13644c0.13644,0 0.54575,-0.13644 0.68219,-0.27287c0.27287,-0.13644 0.40931,-0.27287 0.54575,-0.40931M326.17425,131.7174c0.40931,0.13644 0.68219,0.54575 0.13644,0.81862c-0.27287,1.22794 -0.81862,1.63725 -1.50081,2.04656c-0.81862,0.40931 -1.50081,0.13644 -2.04656,0c-0.68219,-0.27287 -1.0915,-0.95506 -1.22794,-1.22794c-0.27287,-0.68219 -0.40931,-2.31943 -0.40931,-2.72875c-0.13644,-2.04656 -0.40931,-2.86518 -0.68219,-3.2745c-0.13644,-0.27287 -0.40931,-0.40931 -0.68219,-0.40931h-0.27287c-0.68219,0.27287 -1.36437,0.40931 -2.18299,0.54575v4.77531l1.22793,-0.13644c0.40931,-0.13644 0.95506,0.27287 0.95506,0.68219c0.13644,0.40931 -0.27287,0.95506 -0.68218,0.95506l-3.95668,0.54575c-0.40931,0.13644 -0.95507,-0.27287 -0.95507,-0.68219c-0.13644,-0.40931 0.27288,-0.95506 0.68219,-0.95506l1.09149,-0.13644v-4.77531h-0.40931c-0.40931,0 -0.81863,-0.40931 -0.81863,-0.81862c0,-0.40931 0.40932,-0.81862 0.81863,-0.81862h0.40931v-3.82024c-0.40931,0 -0.81862,0.13644 -1.22794,0.13644c-0.40931,0.13644 -0.95506,-0.27288 -0.95506,-0.68219c-0.13644,-0.40931 0.27287,-0.95506 0.68218,-0.95506c1.91012,-0.27287 7.77693,-0.95506 9.1413,1.36438c0.54575,0.95506 0.27287,2.04656 -0.68219,3.41093c0,0 -0.40931,0.40931 -0.81862,0.68219c0.68219,0.68219 1.22794,2.04656 1.22794,4.50243c0,0.68219 0.13644,1.77369 0.27287,2.04656c0.13644,0.13644 0.27287,0.40931 0.27287,0.40931c0.40931,0.13644 0.68219,0.27287 0.81862,0.13644c0.13644,-0.13644 0.40931,-0.13644 0.68219,-1.0915c0.13644,-0.40931 0.68219,-0.68219 1.0915,-0.54575M355.91757,129.12509c0.40931,0 0.81862,0.27287 0.81862,0.54575v1.36437c-0.13644,0.27287 -0.27287,1.22794 -0.54575,1.77369c-0.27287,0.40931 -0.40932,0.68219 -0.68219,0.95506c-0.40931,0.40931 -0.81862,0.68219 -1.22794,0.81862c-0.54575,0.27287 -1.09149,0.27287 -1.63724,0.27287h-0.40931c-3.00162,0 -3.95668,-2.45587 -4.09312,-3.68381v-3.82024c0.13644,-2.04656 0.81862,-3.2745 1.77369,-3.95668c1.22794,-0.81862 2.86518,-0.13644 3.2745,0.13644c0.40931,0.27287 0.81862,0.40932 1.09149,0.68219v-1.50081c0,-0.40931 0.40932,-0.81862 0.81863,-0.81862c0.40931,0 0.81862,0.40931 0.81862,0.81862v3.6838c0,0.40931 -0.13644,0.68219 -0.54575,0.81862c-0.40931,0 -0.81862,-0.13644 -0.95506,-0.40931c-0.13644,0 -0.81862,-1.22794 -1.91012,-1.63725c-0.95506,-0.27287 -1.50081,-0.40931 -1.91012,-0.13644c-0.54575,0.40931 -0.81862,1.36438 -0.95506,2.72875v3.54737c0,0.40931 0.27287,2.183 2.45587,2.04656h0.54575c0.54575,0 0.68219,0 0.95506,-0.13644c0.27287,-0.13644 0.54575,-0.27287 0.68218,-0.40931c0.27287,-0.27287 0.40932,-0.40931 0.54575,-0.68219c0.13644,-0.13644 0.27287,-0.68219 0.27287,-1.0915v-1.0915c0,-0.40931 0.40931,-0.81862 0.81862,-0.81862M369.42485,134.58258c0,0.40931 -0.27287,0.81862 -0.68219,1.09149c-1.91012,0.13644 -3.54737,0.27287 -3.95668,0.54575c-0.54575,0.13644 -0.95506,0.27287 -1.22794,0c-0.40931,-0.27287 -0.40931,-0.81862 -0.13644,-1.09149c0.40931,-0.54575 1.22793,-0.54575 2.31943,-0.81862v-6.27612l-4.91174,0.81862v4.22956h1.36437c0.40931,0 0.81862,0.40931 0.81862,0.81862c0,0.40931 -0.40931,0.81863 -0.81862,0.81863l-4.50243,-0.13644c-0.40931,0 -0.81862,-0.40931 -0.81862,-0.81862c0,-0.40931 0.40931,-0.81862 0.81862,-0.81862h1.36437v-11.05142h-1.36437c-0.40931,0 -0.81862,-0.40932 -0.81862,-0.81863c0,-0.40931 0.40931,-0.81862 0.81862,-0.81862h4.36599c0.40931,0 0.81862,0.40931 0.81862,0.81862c0,0.40931 -0.40931,0.81863 -0.81862,0.81863h-1.36437v5.18461l4.91174,-0.81862v-5.73037h-1.36437c-0.40931,0 -0.81862,-0.40931 -0.81862,-0.81862c0,-0.40931 0.40931,-0.81862 0.81862,-0.81862l4.36599,-0.13644c0.40931,0 0.81862,0.40931 0.81862,0.81862c0,0.40931 -0.40931,0.81863 -0.81862,0.81863h-1.22794c0.13644,9.27773 0.13644,12.14291 0.13644,13.50728c0.40931,-0.13644 0.81862,-0.13643 1.0915,-0.13643c0.40931,0 0.81862,0.40931 0.81862,0.81862" fill="#ffffff" stroke-width="1"/><path d="M332.85967,126.39635l-1.77369,-4.50243l-0.95506,4.91174zM337.3621,128.17003c0.40931,-0.13644 0.81862,0.13644 0.95506,0.40931c0.13644,0.40931 -0.13644,0.95506 -0.54575,1.0915c-1.50081,0.54575 -3.00162,1.22793 -3.41093,1.77368c-0.27287,0.27287 -0.81862,0.40931 -1.22794,0.13644c-0.27287,-0.27287 -0.40931,-0.68219 -0.13644,-1.0915c0.40931,-0.40931 0.68219,-0.54575 1.36437,-0.95506l-0.81862,-2.04656l-3.82024,0.68219l-0.13644,1.22794c0.54575,0 0.81862,0.40931 0.81862,0.81862c0,0.54575 -0.40931,0.81862 -0.81862,0.81862l-4.09312,-0.13644c-0.54575,0 -0.81862,-0.40931 -0.81862,-0.81862c0,-0.54575 0.40931,-0.81862 0.81862,-0.81862l2.45587,0.13644c0.40931,-1.91012 1.63725,-8.0498 1.91012,-9.55061c-1.0915,0.13644 -2.45587,0.27288 -2.45587,0.27288c-0.54575,0.13644 -0.95506,-0.27287 -0.95506,-0.68219c-0.13644,-0.54575 0.27287,-0.95506 0.68219,-0.95506l3.54737,-0.40931c0.27287,0 0.54575,0.13644 0.68219,0.27287c0.13644,0 0.27287,0.27288 0.27287,0.40931l3.13806,7.50405l1.0915,2.59231c0.81862,-0.40931 1.22794,-0.54575 1.50081,-0.68219" fill="#ffffff" stroke-width="1"/><path d="M330.10664,126.84937l0.97112,-5.00477l1.80964,4.59335z" data-paper-data="{&quot;noHover&quot;:false,&quot;origItem&quot;:[&quot;Path&quot;,{&quot;applyMatrix&quot;:true,&quot;segments&quot;:[[665.71934,252.79269],[662.17197,243.78783],[660.26185,253.61131]],&quot;closed&quot;:true,&quot;fillColor&quot;:[0,0,0,1]}]}" fill="#606060" stroke-width="0.5"/><path d="M347.18558,119.84736c0.27287,0 0.54575,0.13644 0.54575,0.40932c0.27287,0.27287 0.27287,0.40931 0.27287,0.68219c-0.13644,1.0915 -0.13644,3.00162 -0.13644,3.00162c0,0.27287 -0.13644,0.68218 -0.40931,0.81862c-0.40931,0.27287 -0.81862,0.13644 -1.0915,-0.27287c0,-0.13644 -0.13644,-0.40931 -0.13644,-1.22794v-1.63725c-0.81862,0 -2.04656,0.13644 -3.41093,0.13644v10.77855h1.63725c0.40931,0 0.81862,0.40931 0.81862,0.81862c0,0.40931 -0.40931,0.81862 -0.81862,0.81862l-5.04818,0.13644c-0.40931,0 -0.81862,-0.40931 -0.81862,-0.81862c0,-0.40931 0.40931,-0.81862 0.81862,-0.81862h1.77369v-10.77854h-3.54737c0.27287,1.0915 0.54575,3.27449 0.54575,3.27449c0,0.40931 -0.27287,0.81862 -0.68219,0.81862c-0.40931,0.13644 -0.95506,-0.27287 -0.95506,-0.68219l-0.68219,-4.09311c-0.13644,-0.27287 0,-0.54575 0.13644,-0.68219c0.27287,-0.13644 0.40931,-0.27287 0.68219,-0.27287l5.32106,-0.13644c2.72875,-0.13644 5.18462,-0.27288 5.18462,-0.27288M312.39408,129.94371c0.40931,0 0.81863,0.40931 0.81863,0.68219v1.36437c-0.13644,0.27287 -0.27288,1.22794 -0.54575,1.77369c-0.27287,0.40931 -0.40931,0.68219 -0.68218,0.95506c-0.40931,0.40931 -0.81862,0.68219 -1.22794,0.81862c-0.54575,0.27287 -1.0915,0.27287 -1.63725,0.27287h-0.40931c-3.13806,0 -4.09312,-2.45587 -4.22956,-3.68381v-3.82024c0.13644,-2.04656 0.81862,-3.2745 1.77369,-3.95668c1.36437,-0.68219 2.86518,-0.13644 3.41093,0.13644c0.40931,0.13644 0.81862,0.40931 1.0915,0.68219v-1.50081c0,-0.40931 0.40931,-0.81862 0.81862,-0.81862c0.40931,0 0.81862,0.40931 0.81862,0.81862v3.68381c0,0.40931 -0.13643,0.68219 -0.54574,0.81862c-0.40931,0 -0.81862,-0.13644 -0.95506,-0.40931c0,0 -0.81862,-1.22794 -1.91012,-1.63725c-0.95506,-0.27287 -1.50081,-0.40931 -1.91012,-0.13644c-0.54575,0.40931 -0.81862,1.36438 -0.95506,2.72875v3.54737c0,0.40931 0.27287,2.04656 2.45587,2.04656h0.54575c0.54575,0 0.68219,-0.00001 0.95506,-0.13644c0.27287,-0.13644 0.54575,-0.27287 0.68219,-0.40931c0.27287,-0.27287 0.40931,-0.40931 0.54575,-0.68219c0.13644,-0.27287 0.27287,-0.81862 0.27287,-1.0915v-1.22794c0,-0.40931 0.40931,-0.81862 0.81862,-0.81862" fill="#ffffff" stroke-width="1"/></g></g></g></g></svg>